<svg xmlns="http://www.w3.org/2000/svg" viewBox="0 0 256 256" role="img" aria-label="Wallbox icon">
  <defs>
    <filter id="shadow" x="-35%" y="-25%" width="170%" height="160%">
      <feDropShadow dx="0" dy="7" stdDeviation="10" flood-color="#000000" flood-opacity="0.35"/>
    </filter>
    <filter id="ringGlow" x="-80%" y="-80%" width="260%" height="260%">
      <feGaussianBlur stdDeviation="3.4" result="blur"/>
      <feMerge>
        <feMergeNode in="blur"/>
        <feMergeNode in="SourceGraphic"/>
      </feMerge>
    </filter>
    <linearGradient id="body" x1="64" y1="36" x2="192" y2="230" gradientUnits="userSpaceOnUse">
      <stop offset="0" stop-color="#2d2f2f"/>
      <stop offset="0.46" stop-color="#151717"/>
      <stop offset="1" stop-color="#060707"/>
    </linearGradient>
    <linearGradient id="face" x1="78" y1="48" x2="178" y2="202" gradientUnits="userSpaceOnUse">
      <stop offset="0" stop-color="#2a2c2c"/>
      <stop offset="1" stop-color="#141616"/>
    </linearGradient>
  </defs>
  <rect width="256" height="256" fill="none"/>
  <path filter="url(#shadow)" d="M128 20c42 0 72 31 72 73v66c0 47-30 77-72 77s-72-30-72-77V93c0-42 30-73 72-73Z" fill="url(#body)"/>
  <path d="M128 38c32 0 55 24 55 57v62c0 37-23 60-55 60s-55-23-55-60V95c0-33 23-57 55-57Z" fill="url(#face)" stroke="#343737" stroke-width="2"/>
  <path d="M103 74c15-6 34-6 50 0" fill="none" stroke="#3b3e3f" stroke-width="3" stroke-linecap="round" opacity="0.45"/>
  <path d="M118 89h20v16h8l-17 20v-20h-11Z" fill="none" stroke="#e9f2f8" stroke-width="3" stroke-linejoin="round" opacity="0.76"/>
  <path d="M104 96c-5 6-8 13-8 21m56-21c5 6 8 13 8 21" fill="none" stroke="#e9f2f8" stroke-width="2.2" stroke-linecap="round" opacity="0.45"/>
  <circle cx="128" cy="153" r="43" fill="none" stroke="#73c9ff" stroke-width="9" filter="url(#ringGlow)" opacity="0.98"/>
  <circle cx="128" cy="153" r="36" fill="#070808" stroke="#2c2f31" stroke-width="4"/>
  <rect x="105" y="132" width="46" height="43" rx="12" fill="#101112" stroke="#272a2c" stroke-width="2"/>
  <path d="M112 140h32" stroke="#1d2022" stroke-width="3" stroke-linecap="round"/>
</svg>
